
Ripper ...........: IMAGiNE                                     
IMDB Rating.......:7.6/10                            
Video Codec.......: XVID                                        
Release Date......:06/10/09
Audio Codec.......:MP3                                          
Theatre Date......:??/??/10
Audio Bitrate.....:128                                          
Runtime.......:1h 42mn
Subtitles.........:NIL                                          Language..........:ENGLISH
Resolution...... 624 x 240                                      

DETAILS:

Video
ID                               : 0
Format                           : MPEG-4 Visual
Format profile                   : Advanced Simple@L5
Format settings, BVOP            : Yes
Format settings, QPel            : No
Format settings, GMC             : No warppoints
Format settings, Matrix          : Default (H.263)
Codec ID                         : XVID
Codec ID/Hint                    : XviD
Duration                         : 1h 29mn
Bit rate                         : 955 Kbps
Width                            : 624 pixels
Height                           : 240 pixels
Display aspect ratio             : 2.600
Frame rate                       : 25.000 fps
Resolution                       : 24 bits
Colorimetry                      : 4:2:0
Scan type                        : Progressive
Bits/(Pixel*Frame)               : 0.255
Stream size                      : 611 MiB (87%)
Writing library                  : XviD 1.2.0.dev47 (UTC 2006-11-01)

Audio
ID                               : 1
Format                           : MPEG Audio
Format version                   : Version 1
Format profile                   : Layer 3
Codec ID                         : 55
Codec ID/Hint                    : MP3
Duration                         : 1h 29mn
Bit rate mode                    : Constant
Bit rate                         : 128 Kbps
Channel(s)                       : 2 channels
Sampling rate                    : 44.1 KHz
Resolution                       : 16 bits
Stream size                      : 81.9 MiB (12%)
Alignment                        : Split accross interleaves
Interleave, duration             : 40 ms (1.00 video frame)
Interleave, preload duration     : 500 ms
******************************************************

Directed By: Bart Freundlich 
Starring: Catherine Zeta-Jones, Justin Bartha, Joanna Gleason, Lynn Whitfield 

In New York City, a single mom captivates her new neighbor, a much younger man.
 
http://www.imdb.com/title/tt1205535/

screens 
 
http://img.scenereleases.info/image-A0F1_4ADC594A.jpg
 
http://img.scenereleases.info/image-D12B_4ADC594A.jpg
 
http://img.scenereleases.info/image-9BC4_4ADC5991.jpg